<svg xmlns="http://www.w3.org/2000/svg" viewBox="0 0 321.17 128.55"><defs><style>.a{fill:#231f20}.b{fill:#a97c50}.d{fill:#f7941d}.e{fill:#009444}.f{fill:#8dc63f}</style></defs><path class="a" d="M10 41.27c-6.41 0-10-6.18-10-13.75 0-7.41 3.57-13.74 10-13.74a8.54 8.54 0 015.2 1.48l-.86 2.09a7 7 0 00-3.72-1.05c-5.13 0-6.91 5.56-6.91 11.22s2 11.07 6.87 11.07a6.61 6.61 0 003.72-1.05l.94 2.25A8.89 8.89 0 0110 41.27zM20 31.72c.39 4.73 2.6 7.06 6.36 7.06a10.43 10.43 0 005.17-1.2l.89 2.25a12.6 12.6 0 01-6.33 1.44c-5.47 0-9.31-3.46-9.31-10.91 0-7.11 3.49-10.79 8.42-10.79s8 3.26 8 10.24zm5.08-9.94c-3 0-5.28 2.44-5.2 8.11l10-1.51c.01-4.74-1.82-6.6-4.81-6.6zM48.64 40.88v-15c0-1.94-.82-4.07-4.39-4.07a8.7 8.7 0 00-4 .74v18.33h-3.37V21a17.44 17.44 0 017.64-1.47c5.83 0 7.53 3.22 7.53 6.21v15.1zM62.88 41.07c-3.81 0-5.21-2.72-5.21-5.28v-13.7h-2.4V20h2.4v-4.86l3.42-1.05V20h3.65v2.14h-3.65v13.57c0 1.67.74 3 2.64 3a5 5 0 001-.15v2.17a6 6 0 01-1.85.34zM76.19 22.21a6.16 6.16 0 00-4.77.38v18.29H68v-19.8c2.06-1 4-1.59 9-1.48zM86.39 41.27c-5.7 0-8.19-4.7-8.19-10.84s2.53-10.86 8.15-10.86 8.2 4.62 8.2 10.86-2.49 10.84-8.16 10.84zm0-19.53c-4 0-4.77 4.46-4.77 8.69s.85 8.47 4.77 8.47 4.74-4.27 4.74-8.47-.74-8.69-4.74-8.69zM225.5 128.55c-6.4 0-10-6.18-10-13.75 0-7.41 3.57-13.74 10-13.74a8.55 8.55 0 015.21 1.48l-.86 2.09a7 7 0 00-3.72-1c-5.13 0-6.91 5.55-6.91 11.21s2 11.07 6.87 11.07a6.61 6.61 0 003.72-1.05l.93 2.25a8.84 8.84 0 01-5.24 1.44zM240.45 128.55c-5.71 0-8.19-4.7-8.19-10.83s2.52-10.87 8.15-10.87 8.19 4.62 8.19 10.87-2.49 10.83-8.15 10.83zm0-19.53c-4 0-4.78 4.47-4.78 8.7s.86 8.46 4.78 8.46 4.73-4.27 4.73-8.46-.74-8.72-4.73-8.72zM260.52 109.49a6.14 6.14 0 00-4.78.39v18.28h-3.41v-19.8c2-1 4-1.59 9-1.47zM270.22 128.35c-3.8 0-5.2-2.71-5.2-5.28v-13.7h-2.41v-2.13H265v-4.82l3.42-1v5.87h3.64v2.13h-3.64V123c0 1.67.73 3 2.64 3a4.24 4.24 0 001-.15V128a5.85 5.85 0 01-1.84.35zM277.29 103.2a1.89 1.89 0 112-1.86 2 2 0 01-2 1.86zm-1.71 25v-20.96H279v20.92zM295.49 128.16v-15c0-2-.81-4.08-4.38-4.08a8.67 8.67 0 00-4 .74v18.36h-3.42v-19.86a17.49 17.49 0 017.65-1.47c5.82 0 7.53 3.22 7.53 6.21v15.1zM310.36 128.55c-5.43 0-8-2.37-8-6.18 0-5.55 5.2-7.18 11.69-7.84v-1.28c0-3.22-1.94-4.15-4.62-4.15a11.74 11.74 0 00-5.05 1.32l-.81-2a13.79 13.79 0 016.4-1.55c3.88 0 7.3 1.67 7.3 6.79v13.43a14.71 14.71 0 01-6.91 1.46zm3.73-12.27c-5.28.66-8.43 1.79-8.43 6 0 3 1.87 4.27 5 4.27a7.72 7.72 0 003.46-.7z"/><path class="b" d="M29.8 80.4L26.44 88A13.82 13.82 0 0125 90.51a1.53 1.53 0 01-1.18.66 1.4 1.4 0 01-1.09-.53 17.25 17.25 0 01-1.42-2.47 69.2 69.2 0 01-1.84-3.78l-3.7-8.33c-.5-1.16-1-1.74-1.6-1.74s-.92.49-1 1.48q-.2 3.32-.2 6.12a18.5 18.5 0 00.28 4 2.12 2.12 0 00.52.9 11.63 11.63 0 001.76 1 1.71 1.71 0 01.92 1.65c0 2.1-2.68 3.14-8 3.14-4.52 0-6.78-1-6.78-3A1.54 1.54 0 012 88.38a8 8 0 011.81-1 2.31 2.31 0 001.24-1.15 10.88 10.88 0 00.55-2.83q.25-2.25.48-7.36c.15-3.41.22-6.34.22-8.77 0-3-.23-5.11-.7-6.19a2.51 2.51 0 00-.57-.85 7.45 7.45 0 00-1.22-.73c-1.33-.63-2-1.45-2-2.46a2.59 2.59 0 01.75-1.8 4.07 4.07 0 012-1.15 23.2 23.2 0 013.3-.63 27.32 27.32 0 013.49-.26 15.44 15.44 0 015.08.58 2.93 2.93 0 011.15.76 11.53 11.53 0 011.2 2l5.84 10.66a13.79 13.79 0 001.31 2.15 1.3 1.3 0 001 .4 1.39 1.39 0 001-.42 6.39 6.39 0 001-1.57l4-7.72c.48-1 .8-1.63.95-1.93a9.73 9.73 0 012.72-3.73c1.14-.8 3.22-1.21 6.23-1.21q7.93 0 7.93 3.62a2.36 2.36 0 01-.31 1.3 4.87 4.87 0 01-1.26 1.2 4.35 4.35 0 00-1.62 2.83 58.38 58.38 0 00-.65 9.42 104.24 104.24 0 00.67 12.54 4.29 4.29 0 00.52 1.79 8 8 0 001.81 1.43 2.08 2.08 0 011 1.8c0 1.31-.87 2.23-2.61 2.77a12.37 12.37 0 01-2.83.59c-1 .1-2.51.14-4.57.14a27.38 27.38 0 01-7.07-.67q-2.58-.75-2.58-2.58a1.73 1.73 0 01.34-1.11 12.57 12.57 0 011.74-1.58 3.59 3.59 0 001-2.27 41.42 41.42 0 00.27-5.72 12.84 12.84 0 00-.21-3 .86.86 0 00-.88-.7c-.53 0-1 .36-1.52 1.08a36.12 36.12 0 00-2.2 4.35zM70.1 64.05a15.49 15.49 0 019 2.67 14.19 14.19 0 014.45 5 13.79 13.79 0 011.74 6.68q0 6.08-5.58 10.34a19.52 19.52 0 01-12.2 4.07q-6.7 0-10.85-3.81a12.5 12.5 0 01-4-9.65 13.57 13.57 0 014.94-10.82 18.56 18.56 0 0112.5-4.48zm-2.24 6.48a2.46 2.46 0 00-2 .91 3.77 3.77 0 00-.74 2.43 22.91 22.91 0 00.63 4.58 34.62 34.62 0 001.5 5.15c.58 1.53 1.52 2.3 2.83 2.3 1.67 0 2.5-1.06 2.5-3.17a26.32 26.32 0 00-.58-5.35 21.71 21.71 0 00-1.53-4.88 3 3 0 00-2.61-1.97zM121.34 74.43l.39 9.87a4.17 4.17 0 00.35 1.66 14.43 14.43 0 001.73 2 1.79 1.79 0 01.42 1.27q0 1.85-2.22 2.58a29.24 29.24 0 01-7.91.72 15.47 15.47 0 01-5.46-.67 2.36 2.36 0 01-1.64-2.23 1.63 1.63 0 01.17-.83 16.16 16.16 0 011.12-1.3c.75-.79 1.12-3.4 1.12-7.85a13.92 13.92 0 00-.89-5.72 3.27 3.27 0 00-5.28-.29 9.66 9.66 0 00-.7 4.38v5.55a8.11 8.11 0 00.21 2.27 13.88 13.88 0 001.39 2.39 2.11 2.11 0 01.31 1.15c0 1.1-.77 1.91-2.3 2.44a24.15 24.15 0 01-7.15.78q-7.8 0-7.8-3.22a1.85 1.85 0 01.24-1 5.26 5.26 0 011.14-1 2.35 2.35 0 00.92-1.22 21.46 21.46 0 00.37-3.38c.13-2.13.19-4.37.19-6.7a6.87 6.87 0 00-.29-2.54A4.66 4.66 0 0088 72.05a2.11 2.11 0 01-.22-3.69 18.24 18.24 0 014-1.81c1.79-.64 3.52-1.17 5.19-1.61a16.29 16.29 0 013.42-.66 1.82 1.82 0 011.41.62 2 2 0 01.58 1.45v.7a3.15 3.15 0 000 .4c0 .89.38 1.34 1.12 1.34.45 0 .93-.35 1.43-1.06a8 8 0 017-3.48A10 10 0 01118 66.1a7.13 7.13 0 012.47 3.1 17.17 17.17 0 01.87 5.23zM177.39 79.45H164.2c-.58 0-.86.25-.86.76a4.48 4.48 0 002 3.43 6.6 6.6 0 004.25 1.62 10.23 10.23 0 003-.52 9.7 9.7 0 002.7-1.28 3 3 0 011.52-.67 1.92 1.92 0 011.43.89 3 3 0 01.7 1.86q0 2-2.52 3.89a16.72 16.72 0 01-10.3 3.34 14.64 14.64 0 01-9.87-3.42 14 14 0 01-3.25-4.07 14.12 14.12 0 01-1.66-6.67 13.6 13.6 0 012.86-8.47 15 15 0 016.28-4.85 15.72 15.72 0 016.2-1.21 13.92 13.92 0 019.06 3 12.26 12.26 0 013 3.59 9.35 9.35 0 011.31 4.6 5.46 5.46 0 01-.75 3 2.28 2.28 0 01-1.91 1.18zm-12.46-5.24h2.84c1.19 0 1.79-.56 1.79-1.66a3.53 3.53 0 00-.87-2.47 3 3 0 00-2.27-1 2.89 2.89 0 00-2.42 1.28 4 4 0 00-.84 2.33 1.48 1.48 0 00.41 1.18 2.27 2.27 0 001.36.34zM193.15 64.08a27.68 27.68 0 014.57.62 4.09 4.09 0 002.91-.39 3.13 3.13 0 011.1-.26 3.58 3.58 0 012.61 1.66 11.92 11.92 0 011.73 2.89 7.06 7.06 0 01.68 2.72 2.45 2.45 0 01-.79 1.86 2.73 2.73 0 01-2 .75 3.22 3.22 0 01-1.75-.48 18.59 18.59 0 01-2.49-2.1q-1.78-1.74-3-1.74a1.95 1.95 0 00-1.93 1.93c0 .92.87 1.78 2.63 2.58a24.33 24.33 0 017.27 4.66 7.09 7.09 0 012.2 5.22 7.9 7.9 0 01-3.42 6.51 11.5 11.5 0 01-7.21 2.27 38.34 38.34 0 01-4-.36c-1.82-.21-2.84-.31-3.06-.31a5.6 5.6 0 00-.84.08 8.71 8.71 0 01-1.18.11 3 3 0 01-2.07-.67 9.57 9.57 0 01-2.11-3.28 9.86 9.86 0 01-1-3.82c0-1.72.68-2.58 2-2.58a2.27 2.27 0 011.45.52 33 33 0 012.76 2.76 9.78 9.78 0 001.9 1.69 3.08 3.08 0 001.63.47 2.23 2.23 0 001.49-.49 1.68 1.68 0 00.56-1.31c0-.84-.72-1.61-2.16-2.3a20.2 20.2 0 01-6.52-4.57 8.13 8.13 0 01-2-5.44 8.64 8.64 0 012.05-5.75 9.89 9.89 0 017.99-3.45zM220.52 64.08a27.54 27.54 0 014.57.62 4.09 4.09 0 002.91-.39 3.13 3.13 0 011.1-.26 3.58 3.58 0 012.61 1.66 12.28 12.28 0 011.74 2.89 7.21 7.21 0 01.67 2.72 2.42 2.42 0 01-.79 1.86 2.71 2.71 0 01-2 .75 3.24 3.24 0 01-1.75-.48 18.69 18.69 0 01-2.48-2.1c-1.2-1.16-2.19-1.74-3-1.74a1.95 1.95 0 00-1.93 1.93c0 .92.88 1.78 2.63 2.58a24.33 24.33 0 017.27 4.66 7.09 7.09 0 012.19 5.22 7.9 7.9 0 01-3.42 6.51 11.5 11.5 0 01-7.21 2.27 38.34 38.34 0 01-4-.36c-1.82-.21-2.84-.31-3.06-.31a5.6 5.6 0 00-.84.08 8.71 8.71 0 01-1.18.11 3 3 0 01-2.07-.67 9.57 9.57 0 01-2.14-3.27 9.86 9.86 0 01-1-3.82c0-1.72.68-2.58 2-2.58a2.27 2.27 0 011.45.52 33 33 0 012.76 2.76 9.78 9.78 0 001.91 1.69 3 3 0 001.62.47 2.21 2.21 0 001.49-.49 1.68 1.68 0 00.56-1.31c0-.84-.72-1.61-2.16-2.3a20.2 20.2 0 01-6.52-4.57 8.12 8.12 0 01-2-5.44 8.63 8.63 0 012-5.75 9.89 9.89 0 018.07-3.46zM254 64.05a15.46 15.46 0 019 2.67 14.22 14.22 0 014.46 5 13.79 13.79 0 011.74 6.68q0 6.08-5.58 10.34a19.52 19.52 0 01-12.2 4.07q-6.7 0-10.85-3.81a12.47 12.47 0 01-4-9.65 13.56 13.56 0 014.93-10.82 18.57 18.57 0 0112.5-4.48zm-2.24 6.48a2.43 2.43 0 00-2 .91 3.71 3.71 0 00-.74 2.43 22.91 22.91 0 00.63 4.58 34.62 34.62 0 001.5 5.15c.58 1.53 1.52 2.3 2.83 2.3 1.66 0 2.5-1.06 2.5-3.17a26.4 26.4 0 00-.64-5.35 22.28 22.28 0 00-1.52-4.88 3 3 0 00-2.53-1.97zM284.35 64.25q1.48 0 1.8.42a7.4 7.4 0 01.58 2.69c.09.83.38 1.24.87 1.24s.73-.27 1.06-.82a6.75 6.75 0 015.86-3.5 5.6 5.6 0 014.18 1.65A6.18 6.18 0 01300 68a6.88 6.88 0 01-1.71 7.45 6.12 6.12 0 01-4.4 1.71 5.13 5.13 0 01-2.4-.51 11.92 11.92 0 01-2.54-2 1.59 1.59 0 00-1.09-.59 1 1 0 00-1 .88 17.81 17.81 0 00-.24 3.72 34.45 34.45 0 00.31 5.77 2.36 2.36 0 00.54 1.17 4.49 4.49 0 001.5.66c1.69.5 2.53 1.38 2.53 2.63a2.8 2.8 0 01-.82 2A4 4 0 01288.5 92a41.26 41.26 0 01-7.91.56 25.36 25.36 0 01-7.55-.86c-1.53-.53-2.3-1.43-2.3-2.72a3.21 3.21 0 011.69-2.61 4.42 4.42 0 001.12-1 2.91 2.91 0 00.42-1.19 64.71 64.71 0 00.45-9.45 4.35 4.35 0 00-.28-1.81 2.05 2.05 0 00-1.12-.89c-1.33-.52-2-1.28-2-2.27a2.79 2.79 0 011.38-2.31 16.31 16.31 0 014.6-1.92 27.4 27.4 0 017.35-1.28zM317.94 66v16.31a8.42 8.42 0 00.35 2.83 3.88 3.88 0 001.42 1.66 4.61 4.61 0 011.16 1 1.91 1.91 0 01.3 1.11q0 3.62-9.17 3.61a31.28 31.28 0 01-7.83-.78 3.18 3.18 0 01-1.58-1 2.36 2.36 0 01-.61-1.6 2 2 0 01.31-1.18 8.45 8.45 0 011.57-1.34 3.65 3.65 0 001.24-2.11 19.45 19.45 0 00.36-4.34c0-.62 0-1.78-.12-3.47s-.15-2.68-.19-3a2.32 2.32 0 00-1.57-1.76 2.44 2.44 0 01-1.74-2.25c0-1.17.76-2 2.28-2.63a50.11 50.11 0 016.73-2 26.23 26.23 0 015.55-.84c1.03.06 1.54.64 1.54 1.78zm-5.55-12.29a7.1 7.1 0 013.87.92 2.78 2.78 0 011.43 2.45 3.83 3.83 0 01-2.16 3.42 16.15 16.15 0 01-8.27 2 6 6 0 01-3.26-.78 3.16 3.16 0 01-1.62-2.81q0-2.41 3.45-3.78a17.6 17.6 0 016.56-1.4z"/><path d="M151.42 52.61a35.44 35.44 0 0122.39-15c-10.23.06-20.71 3-26.1 12.72 3.32-10.82 9.42-17.89 16.56-22.2 3.53-2.14 7.48-4.29 7.48-4.29-6.55 1.34-16.25 8.53-20.15 12.61 1.07-4.41-2.12-12.89-4.25-14 4.75 7.42-1.2 20.81-4.81 26.44.24-11.53-6.75-18.1-3.85-30.19-2.44 2.08-2.81 9.81-3 13.46-3-3.08-10.14-7.5-17.8-7.2 10.24 3 19.39 11.51 20.27 27.55-4.55-3.38-13.42-3.41-16.92-.45 7.49.65 15 4.28 12.44 14.9 0 0-2.6 11.22-5.8 25.44l4.35 2 4.16.6 4.55.38c2.47-11 6.05-26.6 6.35-28 1.83-8.1 14.58-12.45 26.86-9.69.04.04-7.79-8.95-22.73-5.08z" fill-rule="evenodd" fill="#a97c50"/><path class="d" d="M150.79 10.92a5.43 5.43 0 11-4.8-6 5.43 5.43 0 014.8 6z"/><path class="e" d="M182.21 30.46a5.43 5.43 0 11-4.8-6 5.44 5.44 0 014.8 6z"/><path class="f" d="M190.33 43.66a4.52 4.52 0 11-4-5 4.52 4.52 0 014 5z"/><path d="M134.6 18.28a5.43 5.43 0 11-4.8-6 5.42 5.42 0 014.8 6z" fill="#ffde17"/><path class="f" d="M162.41 21.17a5.43 5.43 0 11-4.8-6 5.44 5.44 0 014.8 6zM115.52 34.47a5.43 5.43 0 11-4.8-6 5.43 5.43 0 014.8 6zM164.39 4.76a3.75 3.75 0 11-3.32-4.14 3.74 3.74 0 013.32 4.14z"/><path class="e" d="M174.54 15.92a3.75 3.75 0 11-3.31-4.14 3.75 3.75 0 013.31 4.14zM133.54 2.41A2.17 2.17 0 11131.62 0a2.17 2.17 0 011.92 2.41z"/><path class="d" d="M185 17.92a2.17 2.17 0 11-1.92-2.4 2.18 2.18 0 011.92 2.4zM128.07 41.58a3.75 3.75 0 11-3.32-4.14 3.74 3.74 0 013.32 4.14zM184.25 56.7a3.75 3.75 0 11-3.31-4.14 3.75 3.75 0 013.31 4.14z"/><path class="e" d="M147.22 26.87a3.75 3.75 0 11-3.32-4.14 3.76 3.76 0 013.32 4.14zM164.76 34.8a1.91 1.91 0 11-1.69-2.11 1.91 1.91 0 011.69 2.11z"/><path class="f" d="M146.09 37.51a1.91 1.91 0 11-1.69-2.11 1.92 1.92 0 011.69 2.11zM116.25 17.89a1.92 1.92 0 11-1.69-2.11 1.91 1.91 0 011.69 2.11zM172.72 46.6a1.91 1.91 0 11-1.72-2.11 1.92 1.92 0 011.72 2.11z"/><path class="e" d="M117.94 49.63a3.62 3.62 0 11-3.2-4 3.62 3.62 0 013.2 4z"/><path d="M141 95.39c.21-.94-.69-1.57-1.89-1.84a2 2 0 00-2.42.86h-.13c.08-.85-.68-1.58-1.78-1.82a2 2 0 00-2.44.86h-.09c.05-.86-.7-1.58-1.8-1.83s-2.19 0-2.45.86h-.06v.09l1.78 10.9 4.8 1z" fill="#d3b091" fill-rule="evenodd"/><path class="f" d="M129.37 101.27l.7 4.75.15 1.06c.16.6.44 1 .84 1.1a1.27 1.27 0 001.11-.53l.67-1 2.9-4z"/></svg>